<?xml version="1.0" encoding="UTF-8"?>
<svg version="1.1" xmlns="http://www.w3.org/2000/svg" width="1920" height="1080">
<path d="M0 0 C633.6 0 1267.2 0 1920 0 C1920 356.4 1920 712.8 1920 1080 C1286.4 1080 652.8 1080 0 1080 C0 723.6 0 367.2 0 0 Z " fill="#000000" transform="translate(0,0)"/>
<path d="M0 0 C3.93472351 0.01137379 7.86917599 0.00461196 11.80389023 -0.00685883 C26.40779023 -0.04320602 40.97716256 0.04728522 55.55126953 1.08886719 C56.57703094 1.15797302 57.60279236 1.22707886 58.65963745 1.29827881 C65.97740753 1.90587898 74.07133206 2.96268531 79.73095703 8.07324219 C80.26462891 8.5334375 80.79830078 8.99363281 81.34814453 9.46777344 C85.23898982 14.09445217 86.58143093 19.42016349 87.52001953 25.26464844 C87.7092247 26.43139854 87.7092247 26.43139854 87.9022522 27.62171936 C89.21563186 36.5190289 89.30773959 45.39550391 89.24707031 54.3737793 C89.23098857 57.19271345 89.24702207 60.01021038 89.26611328 62.82910156 C89.27810602 71.85364061 88.91518245 80.70555437 87.58251953 89.63964844 C87.47467133 90.39374496 87.36682312 91.14784149 87.25570679 91.92478943 C86.13468051 98.5827696 83.86286726 104.1604873 79.16845703 109.07324219 C71.36308316 114.22773437 63.06535987 114.89491714 53.90283203 115.43261719 C52.64420349 115.51219666 51.38557495 115.59177612 50.08880615 115.67376709 C36.20337899 116.4744523 22.32096405 116.56585457 8.41601562 116.52148438 C4.81429335 116.51004742 1.21286519 116.51692363 -2.38884735 116.5283432 C-15.9993395 116.56516174 -29.578605 116.44042628 -43.15966797 115.43261719 C-44.1487616 115.36351135 -45.13785522 115.29440552 -46.15692139 115.22320557 C-53.7158777 114.57512605 -62.08722771 113.13984337 -68.14404297 108.26074219 C-78.87943711 94.45809258 -76.35448707 74.59948661 -76.38427734 58.03857422 C-76.39402336 54.76732328 -76.42516075 51.49669144 -76.45654297 48.22558594 C-76.60901384 17.93048782 -76.60901384 17.93048782 -67.57763672 8.65136719 C-52.66889092 -5.35685034 -19.33501247 -0.05632774 0 0 Z " fill="#FD0000" transform="translate(765.14404296875,481.7392578125)"/>
<path d="M0 0 C4.95 0 9.9 0 15 0 C15.33 12.21 15.66 24.42 16 37 C18.64 34.69 21.28 32.38 24 30 C28.76434073 28.75175509 33.30677731 29.42358376 37.9375 31 C44.52931177 37.39205989 45.0691467 45.86535919 45.21589661 54.60955811 C45.22328354 55.41387268 45.23067047 56.21818726 45.23828125 57.046875 C45.246353 57.89872375 45.25442474 58.75057251 45.26274109 59.62823486 C45.27650537 61.4233603 45.28726137 63.21851107 45.29516602 65.01367188 C45.30667714 66.83080843 45.32711528 68.64791141 45.35668945 70.46484375 C45.71626027 92.6095851 45.71626027 92.6095851 39.72900391 100.72216797 C36.40667655 104.01242874 32.74130046 104.86772881 28.24609375 105.140625 C23.84028648 104.86478315 20.50760863 103.21581341 17.0625 100.4375 C16 99 16 99 16 97 C15.34 97 14.68 97 14 97 C14 98.98 14 100.96 14 103 C9.38 103 4.76 103 0 103 C0 69.01 0 35.02 0 0 Z " fill="#FCFCFC" transform="translate(1112,486)"/>
<path d="M0 0 C6.08117116 3.29153602 8.77185917 9.54761154 10.82714844 15.90234375 C11.47626027 19.19634411 11.48834598 22.47132558 11.5234375 25.81640625 C11.53150925 26.55677628 11.53958099 27.2971463 11.54789734 28.05995178 C11.56170937 29.62921838 11.57244438 31.19851466 11.58032227 32.76782227 C11.59176236 34.34929407 11.61208557 35.93072974 11.6418457 37.51196289 C12.07088132 60.3467247 12.07088132 60.3467247 5.5637207 68.34155273 C-0.52242961 74.12937116 -7.58190271 74.62329779 -15.65234375 74.4765625 C-20.78387348 74.05766211 -23.50248715 72.21336438 -27.40234375 69.0390625 C-30.20383936 65.6318381 -31.42497251 62.39249798 -32.71484375 58.2265625 C-33.20984375 56.7415625 -33.20984375 56.7415625 -33.71484375 55.2265625 C-33.84776108 52.55134918 -33.92708749 49.90308398 -33.953125 47.2265625 C-33.96119675 46.43564209 -33.96926849 45.64472168 -33.97758484 44.82983398 C-33.99141587 43.15204042 -34.00214242 41.47421884 -34.01000977 39.79638672 C-34.02146972 38.09740837 -34.04182547 36.39846429 -34.0715332 34.69970703 C-34.44983222 13.05424061 -34.44983222 13.05424061 -27.27734375 4.2265625 C-19.34842441 -1.96186235 -9.67418545 -2.75609888 0 0 Z " fill="#FCFCFC" transform="translate(953.71484375,516.7734375)"/>
<path d="M0 0 C5.61 0 11.22 0 17 0 C17.02505615 1.77681152 17.0501123 3.55362305 17.07592773 5.38427734 C17.15974383 11.24768456 17.2480132 17.11101558 17.33933926 22.97430992 C17.39455915 26.53004209 17.44797763 30.08578251 17.49731445 33.64160156 C17.55408168 37.72730602 17.61862054 41.81285525 17.68359375 45.8984375 C17.70030624 47.17866791 17.71701874 48.45889832 17.73423767 49.77792358 C17.75418289 50.95899689 17.77412811 52.14007019 17.79467773 53.35693359 C17.81799416 54.92246475 17.81799416 54.92246475 17.84178162 56.5196228 C17.83847204 59.00141782 17.83847204 59.00141782 19 61 C23.34184202 60.81535634 23.34184202 60.81535634 27 59 C27.12337174 57.15968011 27.17791308 55.31470589 27.20532227 53.47045898 C27.22526749 52.28931015 27.24521271 51.10816132 27.26576233 49.89122009 C27.29083107 47.96313255 27.29083107 47.96313255 27.31640625 45.99609375 C27.33718735 44.68794205 27.35796844 43.37979034 27.37937927 42.03199768 C27.434663 38.54844553 27.48404431 35.0648334 27.53222656 31.58117676 C27.58239574 28.0286727 27.63810567 24.4762561 27.69335938 20.92382812 C27.80101794 13.94929289 27.90193388 6.97467664 28 0 C33.61 0 39.22 0 45 0 C45 24.09 45 48.18 45 73 C40.71 73 36.42 73 32 73 C31.34 70.36 30.68 67.72 30 65 C29.29875 65.928125 28.5975 66.85625 27.875 67.8125 C24.74863835 71.50649715 21.73717825 73.60123842 16.828125 74.31640625 C11.40726373 74.5983638 8.18938299 73.69064692 4 70 C0.41781796 65.05905926 -0.12592963 60.9499394 -0.11352539 54.94628906 C-0.11344986 53.72532532 -0.11337433 52.50436157 -0.11329651 51.24639893 C-0.10813522 49.93274353 -0.10297394 48.61908813 -0.09765625 47.265625 C-0.09579021 45.9037074 -0.09436718 44.54178912 -0.09336853 43.17987061 C-0.08955803 39.60258111 -0.07974032 36.02533248 -0.06866455 32.44805908 C-0.05841884 28.79480543 -0.05386415 25.14154514 -0.04882812 21.48828125 C-0.03811669 14.32550008 -0.02053182 7.16276098 0 0 Z " fill="#F6F6F6" transform="translate(1057,517)"/>
<path d="M0 0 C5.61 0 11.22 0 17 0 C17.02505615 1.74128174 17.0501123 3.48256348 17.07592773 5.27661133 C17.1598061 11.02825285 17.24807304 16.779818 17.33933926 22.53134632 C17.39451576 26.0186684 17.44792726 29.50599895 17.49731445 32.9934082 C17.55416255 37.00220847 17.61867048 41.01085357 17.68359375 45.01953125 C17.70030624 46.27272659 17.71701874 47.52592194 17.73423767 48.8170929 C17.75418289 49.97806992 17.77412811 51.13904694 17.79467773 52.33520508 C17.81799416 53.87075798 17.81799416 53.87075798 17.84178162 55.43733215 C17.89715622 58.12007976 17.89715622 58.12007976 19 61 C21.91652174 61.16681109 21.91652174 61.16681109 25 61 C27.6539553 58.3460447 27.27151383 57.06474997 27.31884766 53.35693359 C27.33871735 52.17586029 27.35858704 50.99478699 27.37905884 49.77792358 C27.39061005 48.49769318 27.40216125 47.21746277 27.4140625 45.8984375 C27.43342865 44.59170074 27.4527948 43.28496399 27.4727478 41.93862915 C27.5241417 38.46332891 27.56372822 34.98798988 27.60089111 31.51251221 C27.64088553 27.96657659 27.69199859 24.42080338 27.7421875 20.875 C27.83903256 13.91677856 27.92238226 6.9584622 28 0 C33.61 0 39.22 0 45 0 C45 24.09 45 48.18 45 73 C40.71 73 36.42 73 32 73 C31.34 70.36 30.68 67.72 30 65 C29.29875 65.928125 28.5975 66.85625 27.875 67.8125 C24.74863835 71.50649715 21.73717825 73.60123842 16.828125 74.31640625 C12.97071269 74.51704347 10.30528772 74.12096306 6.6875 72.6875 C1.22068733 67.22068733 -0.21645899 59.88645374 -0.45410156 52.33520508 C-0.45347739 49.89655542 -0.43142585 47.45783964 -0.390625 45.01953125 C-0.38496521 43.72552902 -0.37930542 42.43152679 -0.37347412 41.09831238 C-0.35837084 37.69672392 -0.31922741 34.29584415 -0.2746582 30.89453125 C-0.23336959 27.40830058 -0.21539227 23.92195278 -0.1953125 20.43554688 C-0.15271305 13.62338157 -0.08249418 6.81179801 0 0 Z " fill="#F7F7F7" transform="translate(973,517)"/>
<path d="M0 0 C4.88334023 2.76135747 7.70640251 6.81948361 9.30859375 12.1640625 C9.78345742 17.34226822 9.68777369 22.47492872 9.55859375 27.6640625 C9.53849541 29.07289124 9.52025053 30.48174771 9.50390625 31.890625 C9.4569915 35.31540165 9.38525584 38.73982258 9.30859375 42.1640625 C0.72859375 42.1640625 -7.85140625 42.1640625 -16.69140625 42.1640625 C-16.54703125 44.9278125 -16.40265625 47.6915625 -16.25390625 50.5390625 C-16.21080322 51.40837402 -16.1677002 52.27768555 -16.12329102 53.17333984 C-15.98144683 57.30140026 -15.98144683 57.30140026 -14.69140625 61.1640625 C-11.27497866 61.41422123 -11.27497866 61.41422123 -7.69140625 61.1640625 C-5.39506801 57.71955513 -5.1512414 55.22593967 -4.69140625 51.1640625 C-0.07140625 51.1640625 4.54859375 51.1640625 9.30859375 51.1640625 C9.89020726 63.08713942 9.89020726 63.08713942 5.30859375 68.1640625 C-0.83807185 73.83790767 -6.29792799 74.61891507 -14.45703125 74.48046875 C-20.19871624 73.91878218 -23.86548254 71.89128763 -28.00390625 67.9765625 C-33.93200113 58.09640437 -33.89642088 47.17229755 -33.94140625 35.9765625 C-33.97234375 34.08067383 -33.97234375 34.08067383 -34.00390625 32.14648438 C-34.04556286 22.08120574 -33.35768572 12.20281128 -26.69140625 4.1640625 C-19.71189149 -2.13452399 -8.90184584 -2.76486939 0 0 Z " fill="#F8F8F8" transform="translate(1197.69140625,516.8359375)"/>
<path d="M0 0 C5.28 0 10.56 0 16 0 C16.94380555 4.13981558 17.88633024 8.27988653 18.82592773 12.4206543 C19.14424423 13.82185379 19.46322777 15.22290195 19.78295898 16.6237793 C22.0108519 26.38791469 24.08500469 36.16933562 26 46 C27.1045033 41.19897976 28.2071281 36.39753316 29.30810547 31.59570312 C29.68195361 29.96635636 30.05629155 28.33712189 30.43115234 26.70800781 C30.97365915 24.34991156 31.51469083 21.99148478 32.0546875 19.6328125 C32.2286908 18.87325256 32.40269409 18.11369263 32.58197021 17.33111572 C33.69123879 12.45420744 34.71568902 7.5695939 35.60986328 2.64794922 C36 1 36 1 37 0 C39.69654854 -0.07319621 42.36691458 -0.09242537 45.0625 -0.0625 C45.82111328 -0.05798828 46.57972656 -0.05347656 47.36132812 -0.04882812 C49.24091871 -0.0370068 51.12046899 -0.01907078 53 0 C50.89886425 9.605192 48.46610086 19.06768504 45.6875 28.5 C45.39206299 29.51980957 45.09662598 30.53961914 44.79223633 31.59033203 C43.29595564 36.72832235 41.73664511 41.82714398 40.02734375 46.8984375 C34.27941491 64.60013945 33.92314417 81.56557994 34 100 C28.72 100 23.44 100 18 100 C17.98582031 97.68226563 17.97164062 95.36453125 17.95703125 92.9765625 C17.87337728 70.74546415 17.87337728 70.74546415 12.78417969 49.26025391 C11.15696431 44.57010447 9.8676079 39.77084612 8.5 35 C7.9059455 32.96194854 7.3109071 30.92418359 6.71484375 28.88671875 C6.14300971 26.92454311 5.57138792 24.9623056 5 23 C4.73590332 22.09459473 4.47180664 21.18918945 4.19970703 20.25634766 C3.47990039 17.77711668 2.76953683 15.29539836 2.0625 12.8125 C1.85109375 12.08869141 1.6396875 11.36488281 1.421875 10.61914062 C0.35417884 6.83136141 0 4.01455392 0 0 Z " fill="#F9F9F9" transform="translate(871,490)"/>
<path d="M0 0 C15.84 0 31.68 0 48 0 C48 4.62 48 9.24 48 14 C42.72 14 37.44 14 32 14 C32 42.38 32 70.76 32 100 C26.72 100 21.44 100 16 100 C16 71.29 16 42.58 16 13 C10.72 13 5.44 13 0 13 C0 8.71 0 4.42 0 0 Z " fill="#FBFBFB" transform="translate(1014,490)"/>
<path d="M0 0 C6.74655111 2.24885037 6.74655111 2.24885037 9.63671875 3.99609375 C10.28777588 4.38474609 10.93883301 4.77339844 11.60961914 5.17382812 C12.29531982 5.59083984 12.98102051 6.00785156 13.6875 6.4375 C15.17906401 7.33307049 16.67127845 8.22755837 18.1640625 9.12109375 C18.94426758 9.5888623 19.72447266 10.05663086 20.52832031 10.53857422 C23.11451655 12.06771 25.72088746 13.5559504 28.3359375 15.03515625 C29.20774658 15.53023682 30.07955566 16.02531738 30.9777832 16.53540039 C32.68416484 17.50230163 34.39359429 18.46384618 36.10620117 19.41967773 C36.87681885 19.85868408 37.64743652 20.29769043 38.44140625 20.75 C39.12920166 21.13671875 39.81699707 21.5234375 40.52563477 21.921875 C41.25544556 22.45554687 41.25544556 22.45554687 42 23 C42 23.66 42 24.32 42 25 C41.21463867 25.44802979 40.42927734 25.89605957 39.62011719 26.35766602 C36.64524653 28.05512564 33.67067451 29.75310642 30.69628906 31.45141602 C29.42036264 32.17980803 28.14432491 32.90800511 26.86816406 33.63598633 C25.01075825 34.69558515 23.15378168 35.755933 21.296875 36.81640625 C20.68598022 37.16474518 20.07508545 37.51308411 19.44567871 37.87197876 C16.4405543 39.58911431 13.4461902 41.3212928 10.47070312 43.08935547 C9.39240234 43.7288916 8.31410156 44.36842773 7.203125 45.02734375 C6.24567383 45.600896 5.28822266 46.17444824 4.30175781 46.76538086 C2 48 2 48 0 48 C0 32.16 0 16.32 0 0 Z " fill="#FFFCFC" transform="translate(755,516)"/>
<path d="M0 0 C2.375 0.625 2.375 0.625 4.125 2.375 C6.66954745 6.9551854 6.54878471 11.5022291 6.578125 16.64453125 C6.58382507 17.42132736 6.58952515 18.19812347 6.59539795 18.99845886 C6.60482748 20.63999071 6.61137379 22.28154131 6.61523438 23.9230957 C6.6249261 26.41847238 6.65596219 28.91302001 6.6875 31.40820312 C6.69403231 33.00780764 6.69928189 34.60741801 6.703125 36.20703125 C6.7154718 36.94581009 6.7278186 37.68458893 6.74053955 38.445755 C6.71895644 43.53252445 5.86540673 47.15052139 3.375 51.625 C-0.18934494 52.79151289 -2.31417747 53.17323664 -5.81225586 51.71020508 C-8.78422333 48.29154189 -8.2153841 44.51794596 -8.19140625 40.13671875 C-8.19760483 39.2007637 -8.20380341 38.26480865 -8.21018982 37.30049133 C-8.21729561 35.31923462 -8.21410076 33.3379183 -8.20141602 31.35668945 C-8.18759677 28.33366909 -8.22155282 25.31377213 -8.25976562 22.29101562 C-8.26071729 20.36458258 -8.25885548 18.43814567 -8.25390625 16.51171875 C-8.26716446 15.61152512 -8.28042267 14.71133148 -8.29408264 13.78385925 C-8.23030744 9.45475567 -7.99506138 6.50741489 -5.24975586 3.04614258 C-2.625 0.625 -2.625 0.625 0 0 Z " fill="#0D0D0D" transform="translate(1134.625,526.375)"/>
<path d="M0 0 C2.625 0.3125 2.625 0.3125 4.375 2.0625 C6.95423749 6.70512747 6.79924213 11.33999006 6.828125 16.55078125 C6.83382507 17.34977341 6.83952515 18.14876556 6.84539795 18.9719696 C6.85482871 20.66058028 6.86137428 22.3492092 6.86523438 24.0378418 C6.87492691 26.60563714 6.90596236 29.17262713 6.9375 31.74023438 C6.94403218 33.38541194 6.94928181 35.0305952 6.953125 36.67578125 C6.9654718 37.43643387 6.9778186 38.19708649 6.99053955 38.98078918 C6.96931118 44.12556924 6.14229808 47.78568342 3.625 52.3125 C0.4375 53.25 0.4375 53.25 -2.375 53.3125 C-6.61672616 48.14865946 -6.54197712 43.59569891 -6.578125 37.07421875 C-6.58382507 36.27522659 -6.58952515 35.47623444 -6.59539795 34.6530304 C-6.60482871 32.96441972 -6.61137428 31.2757908 -6.61523438 29.5871582 C-6.62492691 27.01936286 -6.65596236 24.45237287 -6.6875 21.88476562 C-6.69403218 20.23958806 -6.69928181 18.5944048 -6.703125 16.94921875 C-6.7154718 16.18856613 -6.7278186 15.42791351 -6.74053955 14.64421082 C-6.71937256 9.5143051 -6.23778672 0.82076141 0 0 Z " fill="#101010" transform="translate(942.375,526.6875)"/>
<path d="M0 0 C0.99 0 1.98 0 3 0 C5 0 7 0 9 0 C9.08729047 4.06236402 9.14048992 8.12448589 9.1875 12.1875 C9.21263672 13.33798828 9.23777344 14.48847656 9.26367188 15.67382812 C9.27333984 16.78564453 9.28300781 17.89746094 9.29296875 19.04296875 C9.3086792 20.06414795 9.32438965 21.08532715 9.34057617 22.13745117 C8.82765498 26.44856295 7.12410682 29.06859721 3.8125 31.8125 C0.13810798 33.36390997 -3.11602722 33.82524958 -7 33 C-9.56897075 31.58244954 -10.95268878 30.20085956 -13 28 C-13 27.01 -13 26.02 -13 25 C-11.02 25 -9.04 25 -7 25 C-7 25.66 -7 26.32 -7 27 C-4.03 27 -1.06 27 2 27 C2.33 24.69 2.66 22.38 3 20 C2.01 20.66 1.02 21.32 0 22 C-6.91538462 22.66923077 -6.91538462 22.66923077 -10.9375 20.1875 C-14.30840533 16.61229738 -14.41660949 13.00250061 -14.33203125 8.296875 C-13.1389336 0.04344655 -7.13248958 -0.72126299 0 0 Z " fill="#F2F2F2" transform="translate(1071,655)"/>
<path d="M0 0 C1.98 0 3.96 0 6 0 C6 9.9 6 19.8 6 30 C3 30 0 30 -3 30 C-4.27875 30.103125 -5.5575 30.20625 -6.875 30.3125 C-10.4434544 30.32564348 -10.92400934 30.05982244 -13.9375 27.6875 C-16.81769772 23.93451509 -17.42809719 20.79891635 -17.33203125 16.07421875 C-16.68689758 12.04403074 -15.17811493 10.59437953 -12 8 C-8.18379058 7.32229384 -4.50580076 7.24709962 -1 9 C-0.67 6.03 -0.34 3.06 0 0 Z " fill="#F3F3F3" transform="translate(989,647)"/>
<path d="M0 0 C12.44444444 0 12.44444444 0 16 3 C16.79470703 3.65742187 16.79470703 3.65742187 17.60546875 4.328125 C19.4003315 6.47994925 19.37322465 7.66752172 19.3125 10.4375 C19.30863281 11.19933594 19.30476563 11.96117187 19.30078125 12.74609375 C18.79416421 16.54243186 17.81116458 18.36783146 14.76953125 20.73828125 C9.93564615 22.94046021 5.24546256 22.17292734 0 22 C0 14.74 0 7.48 0 0 Z " fill="#F2F2F2" transform="translate(1206,1013)"/>
<path d="M0 0 C3.0625 2.4375 3.0625 2.4375 5 5 C5.33 5.33 5.66 5.66 6 6 C6 8.31 6 10.62 6 13 C0.72 13 -4.56 13 -10 13 C-9.67 13.99 -9.34 14.98 -9 16 C-6.09926819 16.67801034 -6.09926819 16.67801034 -3 17 C-2.34 16.34 -1.68 15.68 -1 15 C2.125 14.875 2.125 14.875 5 15 C3.52633081 19.6666191 3.52633081 19.6666191 1.19921875 21.140625 C-2.51280903 22.59115095 -6.08288836 22.57953702 -10 22 C-13.49890004 19.88608123 -14.70578686 18.88263941 -16 15 C-16.53094699 10.35203781 -16.64784823 7.03655716 -14.125 3 C-9.99724674 -0.88494424 -5.45197852 -0.79722327 0 0 Z " fill="#F0F0F0" transform="translate(954,655)"/>
<path d="M0 0 C3.0625 2.4375 3.0625 2.4375 5 5 C5.33 5.33 5.66 5.66 6 6 C6 8.31 6 10.62 6 13 C0.72 13 -4.56 13 -10 13 C-9.67 13.99 -9.34 14.98 -9 16 C-6.09926819 16.67801034 -6.09926819 16.67801034 -3 17 C-2.34 16.34 -1.68 15.68 -1 15 C2.125 14.875 2.125 14.875 5 15 C3.52633081 19.6666191 3.52633081 19.6666191 1.19921875 21.140625 C-2.51280903 22.59115095 -6.08288836 22.57953702 -10 22 C-13.49890004 19.88608123 -14.70578686 18.88263941 -16 15 C-16.53094699 10.35203781 -16.64784823 7.03655716 -14.125 3 C-9.99724674 -0.88494424 -5.45197852 -0.79722327 0 0 Z " fill="#F0F0F0" transform="translate(854,655)"/>
<path d="M0 0 C2.93423195 1.79646854 4.47205355 2.9441071 6 6 C6 8.31 6 10.62 6 13 C0.72 13 -4.56 13 -10 13 C-9.01 14.32 -8.02 15.64 -7 17 C-3.70924004 16.62095792 -3.70924004 16.62095792 -1 15 C0.99958364 14.95919217 3.00045254 14.95745644 5 15 C4.70049983 17.8951683 4.19065168 18.83823494 1.9375 20.75 C-2.54478561 22.65735558 -6.55087436 22.66192585 -11.3125 21.375 C-14.88256614 18.46605722 -15.88183091 14.94535272 -16.4375 10.5 C-15.91797864 6.34382914 -14.61512457 4.23044799 -12 1 C-8.30274625 -0.84862688 -4.03538558 -0.47587094 0 0 Z " fill="#F0F0F0" transform="translate(1015,655)"/>
<path d="M0 0 C3.66057887 0.76212052 5.28676196 2.49175464 7.3828125 5.49609375 C7.3828125 6.48609375 7.3828125 7.47609375 7.3828125 8.49609375 C4.5078125 8.68359375 4.5078125 8.68359375 1.3828125 8.49609375 C0.7228125 7.50609375 0.0628125 6.51609375 -0.6171875 5.49609375 C-2.2671875 5.82609375 -3.9171875 6.15609375 -5.6171875 6.49609375 C-5.49791186 8.44894457 -5.49791186 8.44894457 -4.6171875 10.49609375 C-2.37733485 11.78358876 -2.37733485 11.78358876 0.3203125 12.62109375 C5.21062707 14.32390832 5.21062707 14.32390832 7.3828125 16.49609375 C7.94089695 20.72159032 7.82105347 22.80951623 5.5078125 26.43359375 C1.69894635 28.94744541 -0.74442412 29.21333433 -5.234375 28.9921875 C-8.89495387 28.23006698 -10.52113696 26.50043286 -12.6171875 23.49609375 C-12.6171875 22.50609375 -12.6171875 21.51609375 -12.6171875 20.49609375 C-9.7421875 20.30859375 -9.7421875 20.30859375 -6.6171875 20.49609375 C-5.9571875 21.48609375 -5.2971875 22.47609375 -4.6171875 23.49609375 C-1.53352879 23.74630945 -1.53352879 23.74630945 1.3828125 23.49609375 C1.26547978 21.05020426 1.26547978 21.05020426 0.3828125 18.49609375 C-1.8063292 17.13088281 -1.8063292 17.13088281 -4.4921875 16.37109375 C-7.93726522 15.23612645 -10.3559887 14.41376962 -12.6171875 11.49609375 C-13.30028219 7.5682993 -12.93081432 5.97698821 -10.7421875 2.62109375 C-6.92983309 0.02869275 -4.53008158 -0.22312342 0 0 Z " fill="#F1F1F1" transform="translate(826.6171875,648.50390625)"/>
<path d="M0 0 C2.475 0.495 2.475 0.495 5 1 C6.7325 0.62875 6.7325 0.62875 8.5 0.25 C12 0 12 0 14.9375 2 C17.5078445 5.7386829 17.71592958 7.54532704 17 12 C15.4375 14.9375 15.4375 14.9375 13 17 C9.55602925 17.35627284 7.12860495 17.56430248 4 16 C4 18.31 4 20.62 4 23 C2.68 23 1.36 23 0 23 C0 15.41 0 7.82 0 0 Z " fill="#CFCFCF" transform="translate(1068,1018)"/>
<path d="M0 0 C0.65097656 0.14953125 1.30195312 0.2990625 1.97265625 0.453125 C4.23060228 0.79428583 5.77493916 0.42429514 7.9375 -0.25 C8.0458667 2.4802389 8.12496694 5.20614543 8.1875 7.9375 C8.23777344 9.09088867 8.23777344 9.09088867 8.2890625 10.26757812 C8.35603725 14.16885705 8.18623753 16.30319369 6.25 19.78125 C3.4680921 22.14963105 2.28080076 22.29890137 -1.3125 22.0625 C-2.20453125 22.01738281 -3.0965625 21.97226563 -4.015625 21.92578125 C-4.69109375 21.86777344 -5.3665625 21.80976562 -6.0625 21.75 C-6.3925 20.43 -6.7225 19.11 -7.0625 17.75 C-5.04427083 18.04296875 -3.02604167 18.3359375 -1.0078125 18.62890625 C1.01890667 18.9184297 1.01890667 18.9184297 2.9375 17.75 C2.9375 16.76 2.9375 15.77 2.9375 14.75 C1.885625 15.018125 0.83375 15.28625 -0.25 15.5625 C-4.0625 15.75 -4.0625 15.75 -7 13.6875 C-9.0625 10.75 -9.0625 10.75 -9.6875 7.75 C-8.54564837 2.26911216 -5.67391746 -0.8166199 0 0 Z " fill="#D9D9D9" transform="translate(1276.0625,1018.25)"/>
<path d="M0 0 C2.66666667 0 5.33333333 0 8 0 C8.66773438 -0.04640625 9.33546875 -0.0928125 10.0234375 -0.140625 C10.79945312 -0.17671875 11.57546875 -0.2128125 12.375 -0.25 C13.14585938 -0.29640625 13.91671875 -0.3428125 14.7109375 -0.390625 C17 0 17 0 19.2734375 1.4375 C21.85964407 5.27585184 21.43335445 8.73665965 21.25 13.25 C21.23195313 14.09046875 21.21390625 14.9309375 21.1953125 15.796875 C21.14830798 17.86507395 21.07656724 19.93268441 21 22 C19.35 22 17.7 22 16 22 C15.95101563 20.94039062 15.90203125 19.88078125 15.8515625 18.7890625 C15.77653291 17.40101503 15.70098515 16.01299549 15.625 14.625 C15.5940625 13.92632813 15.563125 13.22765625 15.53125 12.5078125 C15.40500502 8.29814173 15.40500502 8.29814173 13 5 C9.69316534 5.28983269 9.69316534 5.28983269 7 7 C6.76346477 9.52596259 6.57826308 12.03107207 6.4375 14.5625 C6.39431641 15.27341797 6.35113281 15.98433594 6.30664062 16.71679688 C6.20028223 18.47761912 6.09961154 20.2387832 6 22 C4.02 22 2.04 22 0 22 C0 14.74 0 7.48 0 0 Z " fill="#F5F5F5" transform="translate(1085,655)"/>
<path d="M0 0 C2.38671875 0.359375 2.38671875 0.359375 5.01171875 2.171875 C6.38671875 4.359375 6.38671875 4.359375 6.38671875 7.359375 C4.40671875 7.359375 2.42671875 7.359375 0.38671875 7.359375 C0.05671875 6.699375 -0.27328125 6.039375 -0.61328125 5.359375 C-1.93328125 5.359375 -3.25328125 5.359375 -4.61328125 5.359375 C-4.61328125 6.019375 -4.61328125 6.679375 -4.61328125 7.359375 C-3.90300781 7.62492188 -3.19273438 7.89046875 -2.4609375 8.1640625 C-1.08228516 8.69386719 -1.08228516 8.69386719 0.32421875 9.234375 C1.24074219 9.58242188 2.15726563 9.93046875 3.1015625 10.2890625 C5.38671875 11.359375 5.38671875 11.359375 6.38671875 13.359375 C6.94723865 18.62826208 6.94723865 18.62826208 4.94921875 21.234375 C1.08510573 22.93081486 -2.47038393 23.17026238 -6.61328125 22.359375 C-9.67578125 19.984375 -9.67578125 19.984375 -11.61328125 17.359375 C-11.61328125 16.699375 -11.61328125 16.039375 -11.61328125 15.359375 C-9.63328125 15.359375 -7.65328125 15.359375 -5.61328125 15.359375 C-5.28328125 16.019375 -4.95328125 16.679375 -4.61328125 17.359375 C-2.96328125 17.359375 -1.31328125 17.359375 0.38671875 17.359375 C0.05671875 16.369375 -0.27328125 15.379375 -0.61328125 14.359375 C-2.68086754 13.40936212 -2.68086754 13.40936212 -5.11328125 12.796875 C-7.58203125 12.10546875 -7.58203125 12.10546875 -9.61328125 11.359375 C-11.01263138 8.56067473 -10.8659353 6.45438708 -10.61328125 3.359375 C-7.7524299 -0.58471133 -4.52917598 -0.13223871 0 0 Z " fill="#F2F2F2" transform="translate(1035.61328125,654.640625)"/>
<path d="M0 0 C3.76310902 0.77293244 5.45596141 2.42207666 7.60546875 5.53515625 C7.60546875 6.19515625 7.60546875 6.85515625 7.60546875 7.53515625 C4.73046875 7.66015625 4.73046875 7.66015625 1.60546875 7.53515625 C0.94546875 6.87515625 0.28546875 6.21515625 -0.39453125 5.53515625 C-3.49379944 5.85714591 -3.49379944 5.85714591 -6.39453125 6.53515625 C-6.42142341 8.01422517 -6.44087746 9.49343108 -6.45703125 10.97265625 C-6.46863281 11.79636719 -6.48023438 12.62007812 -6.4921875 13.46875 C-6.62720473 15.52679563 -6.62720473 15.52679563 -5.39453125 16.53515625 C-3.39494761 16.57596408 -1.39407871 16.57769981 0.60546875 16.53515625 C0.93546875 15.87515625 1.26546875 15.21515625 1.60546875 14.53515625 C3.58546875 14.53515625 5.56546875 14.53515625 7.60546875 14.53515625 C6.73975305 17.20444632 5.88355637 19.21257461 4.04296875 21.34765625 C0.27773735 23.18199975 -3.28988236 23.21560607 -7.39453125 22.53515625 C-10.26482994 20.74121957 -11.88584763 19.55252349 -13.39453125 16.53515625 C-13.99180123 11.7911261 -14.31139486 7.0288349 -11.58203125 2.91015625 C-7.55042604 -0.09378489 -4.93346903 -0.25965626 0 0 Z " fill="#EFEFEF" transform="translate(927.39453125,654.46484375)"/>
<path d="M0 0 C4.25331827 0.86802414 6.18199992 2.40158324 9.0625 5.625 C9.80214523 9.76701331 9.4708934 11.82522959 7.5625 15.5625 C4.70203096 17.92238696 2.73883097 18.36161074 -0.96484375 18.10546875 C-4.49229057 17.24630844 -5.93850675 15.56102134 -7.9375 12.625 C-8.5625 9.125 -8.5625 9.125 -7.9375 5.625 C-5.51605492 2.27770827 -4.06319154 0.86450884 0 0 Z " fill="#F0F0F0" transform="translate(772.9375,1017.375)"/>
<path d="M0 0 C1.98 0 3.96 0 6 0 C7.65 4.62 9.3 9.24 11 14 C11.61875 12.4325 12.2375 10.865 12.875 9.25 C14.12374836 6.08650414 15.43370292 3.01970788 17 0 C18.98 0 20.96 0 23 0 C20.36 7.26 17.72 14.52 15 22 C12.69 22 10.38 22 8 22 C4.85830477 14.7728592 2.07042054 7.60837466 0 0 Z " fill="#F4F4F4" transform="translate(878,655)"/>
<path d="M0 0 C5.12161359 -0.65382301 5.12161359 -0.65382301 7.6730957 1.24536133 C9.35776518 3.47309262 9.34874046 4.67922383 9.29296875 7.44921875 C9.28330078 8.29677734 9.27363281 9.14433594 9.26367188 10.01757812 C9.23853516 10.89865234 9.21339844 11.77972656 9.1875 12.6875 C9.17396484 13.58017578 9.16042969 14.47285156 9.14648438 15.39257812 C9.11114643 17.59530983 9.05733969 19.7977312 9 22 C5.37 22 1.74 22 -2 22 C-2.0538854 18.89560214 -2.09361739 15.79213693 -2.125 12.6875 C-2.14175781 11.80642578 -2.15851563 10.92535156 -2.17578125 10.01757812 C-2.18222656 9.17001953 -2.18867187 8.32246094 -2.1953125 7.44921875 C-2.20578613 6.66893311 -2.21625977 5.88864746 -2.22705078 5.0847168 C-2 3 -2 3 0 0 Z " fill="#030303" transform="translate(1183,527)"/>
<path d="M0 0 C1.32 0.33 2.64 0.66 4 1 C4.33 0.67 4.66 0.34 5 0 C6.37998964 0.11845405 7.75508984 0.29567442 9.125 0.5 C12.46279654 0.94574707 14.41420374 0.9185173 17.8125 0.25 C21 0 21 0 23.4375 1.6875 C25.80081008 6.69771736 25.31283345 11.55148412 25 17 C23.68 17 22.36 17 21 17 C20.505 10.565 20.505 10.565 20 4 C18.02 4 16.04 4 14 4 C14 8.29 14 12.58 14 17 C13.01 17 12.02 17 11 17 C10.67 13.04 10.34 9.08 10 5 C8.35 4.67 6.7 4.34 5 4 C3.18884044 5.81115956 3.61800552 8.61278227 3.4375 11.0625 C3.31181641 12.71958984 3.31181641 12.71958984 3.18359375 14.41015625 C3.12300781 15.26480469 3.06242188 16.11945313 3 17 C2.01 17 1.02 17 0 17 C0 11.39 0 5.78 0 0 Z " fill="#EDEDED" transform="translate(785,1018)"/>
<path d="M0 0 C2.2109375 1.59765625 2.2109375 1.59765625 4 4 C4.390625 7.234375 4.390625 7.234375 4.25 10.75 C4.21390625 11.92046875 4.1778125 13.0909375 4.140625 14.296875 C4.07101562 15.63492187 4.07101562 15.63492187 4 17 C3.360625 16.814375 2.72125 16.62875 2.0625 16.4375 C1.0415625 16.2209375 1.0415625 16.2209375 0 16 C-0.33 16.33 -0.66 16.66 -1 17 C-7.22357019 17.4610052 -7.22357019 17.4610052 -10 15.8125 C-11 14 -11 14 -10.8125 11.4375 C-10 9 -10 9 -8 7 C-5.31160615 6.73008094 -2.70858064 6.91262643 0 7 C-0.33 6.01 -0.66 5.02 -1 4 C-3.64 4 -6.28 4 -9 4 C-9 3.01 -9 2.02 -9 1 C-5.90826248 -0.54586876 -3.40570448 -0.29359521 0 0 Z " fill="#E9E9E9" transform="translate(823,1018)"/>
<path d="M0 0 C8.07692308 0 8.07692308 0 12 3 C13.40457737 5.80915474 13.24895157 7.88810534 13 11 C11.22015595 14.1359157 10.47691793 14.84102736 7 16 C4.69 16 2.38 16 0 16 C0 10.72 0 5.44 0 0 Z " fill="#020202" transform="translate(1209,1016)"/>
<path d="M0 0 C2.875 1.75 2.875 1.75 5 5 C5.41449604 9.03477791 5.28999494 12.95940379 5 17 C4.38125 16.814375 3.7625 16.62875 3.125 16.4375 C0.95839822 15.76313824 0.95839822 15.76313824 -1 17 C-4.5 17.25 -4.5 17.25 -8 17 C-10 14 -10 14 -9.75 11.4375 C-9 9 -9 9 -7 7 C-4.31160615 6.73008094 -1.70858064 6.91262643 1 7 C0.67 6.01 0.34 5.02 0 4 C-2.64 4 -5.28 4 -8 4 C-8 3.01 -8 2.02 -8 1 C-5.11138291 -0.44430855 -3.20352299 -0.37688506 0 0 Z " fill="#DCDCDC" transform="translate(666,1018)"/>
<path d="M0 0 C5.28 0 10.56 0 16 0 C16 0.99 16 1.98 16 3 C11.71 3 7.42 3 3 3 C3 4.98 3 6.96 3 9 C6.96 9 10.92 9 15 9 C15 9.99 15 10.98 15 12 C11.04 12 7.08 12 3 12 C3 14.31 3 16.62 3 19 C7.29 19 11.58 19 16 19 C16 19.99 16 20.98 16 22 C10.72 22 5.44 22 0 22 C0 14.74 0 7.48 0 0 Z " fill="#F9F9F9" transform="translate(1031,1013)"/>
<path d="M0 0 C2.17578125 1.59765625 2.17578125 1.59765625 4 4 C4.390625 7.234375 4.390625 7.234375 4.25 10.75 C4.21390625 11.92046875 4.1778125 13.0909375 4.140625 14.296875 C4.07101562 15.63492187 4.07101562 15.63492187 4 17 C3.360625 16.814375 2.72125 16.62875 2.0625 16.4375 C1.0415625 16.2209375 1.0415625 16.2209375 0 16 C-0.33 16.33 -0.66 16.66 -1 17 C-7.22357019 17.4610052 -7.22357019 17.4610052 -10 15.8125 C-11 14 -11 14 -10.8125 11.4375 C-10 9 -10 9 -8 7 C-5.8359375 6.8046875 -5.8359375 6.8046875 -3.375 6.875 C-2.14910156 6.90207031 -2.14910156 6.90207031 -0.8984375 6.9296875 C0.04128906 6.96449219 0.04128906 6.96449219 1 7 C0.34 6.01 -0.32 5.02 -1 4 C-4.58357241 3.74984127 -4.58357241 3.74984127 -8 4 C-8.33 3.01 -8.66 2.02 -9 1 C-5.68377419 -0.1054086 -3.47482175 -0.35457365 0 0 Z " fill="#E7E7E7" transform="translate(909,1018)"/>
<path d="M0 0 C1.875 1.1875 1.875 1.1875 3 3 C3.33 4.98 3.66 6.96 4 9 C-0.29 9 -4.58 9 -9 9 C-8.67 9.99 -8.34 10.98 -8 12 C-3.46859347 12.93380961 -3.46859347 12.93380961 1 12 C1.33 12.99 1.66 13.98 2 15 C-1.20531421 16.6026571 -4.52218208 16.48207377 -8 16 C-11.33219018 13.86398066 -11.89315459 12.3672811 -13 8.5625 C-13 5 -13 5 -11.1875 2.125 C-7.34269226 -1.60995609 -5.16116955 -1.08656201 0 0 Z " fill="#E1E1E1" transform="translate(1190,1019)"/>
<path d="M0 0 C3.73838622 0.77883046 5.41350504 1.81680548 8 4.625 C8.33 6.605 8.66 8.585 9 10.625 C4.71 10.625 0.42 10.625 -4 10.625 C-3.34 11.945 -2.68 13.265 -2 14.625 C0.64 14.295 3.28 13.965 6 13.625 C6.33 14.615 6.66 15.605 7 16.625 C3.79468579 18.2276571 0.47781792 18.10707377 -3 17.625 C-6.29291844 15.51415485 -6.88775952 13.98152858 -8.0625 10.25 C-8.00091244 6.67792163 -7.92151462 5.89471995 -5.9375 3.1875 C-3 0.625 -3 0.625 0 0 Z " fill="#C9C9C9" transform="translate(1132,1017.375)"/>
<path d="M0 0 C3.73877999 0.7789125 5.45149405 1.77666982 8 4.625 C8 6.605 8 8.585 8 10.625 C4.04 10.625 0.08 10.625 -4 10.625 C-3.34 11.945 -2.68 13.265 -2 14.625 C0.64 14.295 3.28 13.965 6 13.625 C6.33 14.615 6.66 15.605 7 16.625 C3.28888231 17.86203923 -0.14896131 18.30687405 -4 17.625 C-6.96341004 15.10610147 -7.8341401 13.49115726 -8.5625 9.6875 C-7.62282019 4.5714655 -5.21837321 1.08716109 0 0 Z " fill="#CBCBCB" transform="translate(1095,1017.375)"/>
<path d="M0 0 C2.4375 2.3125 2.4375 2.3125 4 5 C4 6.32 4 7.64 4 9 C-0.29 9 -4.58 9 -9 9 C-8.01 10.32 -7.02 11.64 -6 13 C-3.36 12.67 -0.72 12.34 2 12 C2 12.99 2 13.98 2 15 C-1.21102274 16.60551137 -4.51699208 16.46807221 -8 16 C-10.5 14.5625 -10.5 14.5625 -12 12 C-12.60327747 8.86870267 -12.6526731 6.12596064 -12 3 C-8.4408987 -1.52976529 -5.35199092 -1.65425174 0 0 Z " fill="#DCDCDC" transform="translate(1003,1019)"/>
<path d="M0 0 C2.4375 2.3125 2.4375 2.3125 4 5 C4 6.32 4 7.64 4 9 C-0.29 9 -4.58 9 -9 9 C-8.01 10.32 -7.02 11.64 -6 13 C-3.36 12.67 -0.72 12.34 2 12 C2 12.99 2 13.98 2 15 C-1.21102274 16.60551137 -4.51699208 16.46807221 -8 16 C-10.5 14.5625 -10.5 14.5625 -12 12 C-12.60327747 8.86870267 -12.6526731 6.12596064 -12 3 C-8.4408987 -1.52976529 -5.35199092 -1.65425174 0 0 Z " fill="#DCDCDC" transform="translate(875,1019)"/>
<path d="M0 0 C4.04381805 0.84246209 5.53235541 2.35899981 8 5.625 C8 7.275 8 8.925 8 10.625 C2.06 11.12 2.06 11.12 -4 11.625 C-3.01 13.11 -3.01 13.11 -2 14.625 C0.64 14.295 3.28 13.965 6 13.625 C6 14.615 6 15.605 6 16.625 C5 17.625 5 17.625 1.1875 17.875 C-1.38455642 17.81507754 -3.01092719 17.62079724 -5.4375 16.6875 C-7.98650661 13.32281127 -8.42244096 9.78385839 -8 5.625 C-5.61234617 2.07969582 -4.1855322 0.87198588 0 0 Z " fill="#D8D8D8" transform="translate(1236,1017.375)"/>
<path d="M0 0 C1.32 0 2.64 0 4 0 C4.06058594 1.13179687 4.12117187 2.26359375 4.18359375 3.4296875 C4.26799917 4.91147145 4.35264717 6.3932416 4.4375 7.875 C4.47681641 8.62136719 4.51613281 9.36773438 4.55664062 10.13671875 C4.71573624 14.19986864 4.71573624 14.19986864 6 18 C9.41656024 18.16677282 9.41656024 18.16677282 13 18 C15.93447357 15.06552643 15.46158423 11.81740544 15.625 7.875 C15.68300781 6.74384766 15.68300781 6.74384766 15.7421875 5.58984375 C15.83651031 3.72696816 15.91934662 1.86351745 16 0 C16.99 0 17.98 0 19 0 C19.13548815 2.73083902 19.23429855 5.45491807 19.3125 8.1875 C19.35439453 8.95642578 19.39628906 9.72535156 19.43945312 10.51757812 C19.53106741 14.78680402 19.38613155 16.4875948 16.73046875 20.01171875 C13.40552386 22.43288749 11.89578778 22.73967903 7.93359375 22.5 C4.65279768 21.65163253 3.03356261 19.5881706 1 17 C-0.53266582 13.93466836 -0.10276471 10.73245728 -0.0625 7.375 C-0.05798828 6.66859375 -0.05347656 5.9621875 -0.04882812 5.234375 C-0.03703875 3.48954725 -0.01910324 1.744763 0 0 Z " fill="#E6E6E6" transform="translate(954,1013)"/>
<path d="M0 0 C0.99 0.66 1.98 1.32 3 2 C2.67 2.99 2.34 3.98 2 5 C1.34 4.67 0.68 4.34 0 4 C-2.3329866 3.95977609 -4.66706666 3.95679753 -7 4 C-7.33 5.32 -7.66 6.64 -8 8 C-7.30132813 8.19335938 -6.60265625 8.38671875 -5.8828125 8.5859375 C-4.97273437 8.84632813 -4.06265625 9.10671875 -3.125 9.375 C-2.22007812 9.63023437 -1.31515625 9.88546875 -0.3828125 10.1484375 C2 11 2 11 4 13 C4.55632239 18.22943047 4.55632239 18.22943047 2.79296875 20.671875 C0.42188608 22.42823253 -1.07479279 22.36908883 -4 22.3125 C-4.86625 22.30863281 -5.7325 22.30476563 -6.625 22.30078125 C-9 22 -9 22 -12 20 C-12 19.01 -12 18.02 -12 17 C-11.505 17.165 -11.01 17.33 -10.5 17.5 C-6.96555911 18.20688818 -3.60309299 18.06005155 0 18 C0.33 16.68 0.66 15.36 1 14 C0.39671875 13.90203125 -0.2065625 13.8040625 -0.828125 13.703125 C-4.59472359 12.99840655 -7.40078682 12.42383372 -10.5625 10.1875 C-12.33868515 7.48460956 -12.65018312 6.16964273 -12 3 C-8.70240087 -0.98459895 -4.7715233 -0.37869233 0 0 Z " fill="#E8E8E8" transform="translate(758,1013)"/>
<path d="M0 0 C4 0 8 0 12 0 C12 1.65 12 3.3 12 5 C10.35 5.66 8.7 6.32 7 7 C6.67 11.95 6.34 16.9 6 22 C4.02 22 2.04 22 0 22 C0 14.74 0 7.48 0 0 Z " fill="#F0F0F0" transform="translate(864,655)"/>
<path d="M0 0 C0.99 0 1.98 0 3 0 C3 2.31 3 4.62 3 7 C3.99 6.34 4.98 5.68 6 5 C8.4375 4.625 8.4375 4.625 11 5 C13.14453125 6.6015625 13.14453125 6.6015625 15 9 C15.390625 12.234375 15.390625 12.234375 15.25 15.75 C15.21390625 16.92046875 15.1778125 18.0909375 15.140625 19.296875 C15.07101562 20.63492187 15.07101562 20.63492187 15 22 C13.68 22 12.36 22 11 22 C10.67 17.71 10.34 13.42 10 9 C8.35 9 6.7 9 5 9 C3.18884044 10.81115956 3.61800552 13.61278227 3.4375 16.0625 C3.35371094 17.16722656 3.26992188 18.27195312 3.18359375 19.41015625 C3.12300781 20.26480469 3.06242188 21.11945313 3 22 C2.01 22 1.02 22 0 22 C0 14.74 0 7.48 0 0 Z " fill="#D5D5D5" transform="translate(719,1013)"/>
<path d="M0 0 C0.99 0 1.98 0 3 0 C3.33 3.96 3.66 7.92 4 12 C5.093125 10.845 6.18625 9.69 7.3125 8.5 C9.17578125 6.53125 9.17578125 6.53125 11 5 C11.99 5 12.98 5 14 5 C12.70700306 7.88437779 11.34058637 9.87219421 9 12 C10.33488128 15.59391114 11.96022723 18.75490696 14 22 C10.32579134 21.69381595 9.21864487 21.24228216 6.6875 18.4375 C6.130625 17.633125 5.57375 16.82875 5 16 C4.34 17.98 3.68 19.96 3 22 C2.01 22 1.02 22 0 22 C0 14.74 0 7.48 0 0 Z " fill="#E8E8E8" transform="translate(882,1013)"/>
<path d="M0 0 C10.28010471 -0.4895288 10.28010471 -0.4895288 13.34375 1.59375 C15.55251544 4.80271111 15.40430061 6.89248471 15.25 10.75 C15.21390625 11.92046875 15.1778125 13.0909375 15.140625 14.296875 C15.07101562 15.63492187 15.07101562 15.63492187 15 17 C14.01 17 13.02 17 12 17 C11.93941406 16.14535156 11.87882812 15.29070312 11.81640625 14.41015625 C11.73261719 13.30542969 11.64882812 12.20070313 11.5625 11.0625 C11.48128906 9.96035156 11.40007812 8.85820313 11.31640625 7.72265625 C11.29581916 5.08890097 11.29581916 5.08890097 10 4 C8.35 4 6.7 4 5 4 C4.67 8.29 4.34 12.58 4 17 C2.68 17 1.36 17 0 17 C0 11.39 0 5.78 0 0 Z " fill="#CBCBCB" transform="translate(1287,1018)"/>
<path d="M0 0 C0.99 0 1.98 0 3 0 C3 2.31 3 4.62 3 7 C3.99 6.34 4.98 5.68 6 5 C9.5625 5.1875 9.5625 5.1875 13 6 C15.42130331 9.63195496 15.21022785 11.38349348 15.125 15.6875 C15.10695313 16.86699219 15.08890625 18.04648438 15.0703125 19.26171875 C15.03550781 20.61716797 15.03550781 20.61716797 15 22 C14.01 22 13.02 22 12 22 C11.93941406 21.14535156 11.87882813 20.29070312 11.81640625 19.41015625 C11.73261719 18.30542969 11.64882813 17.20070313 11.5625 16.0625 C11.48128906 14.96035156 11.40007813 13.85820313 11.31640625 12.72265625 C11.29581916 10.08890097 11.29581916 10.08890097 10 9 C7.5 8.83333333 7.5 8.83333333 5 9 C3.18884044 10.81115956 3.61800552 13.61278227 3.4375 16.0625 C3.35371094 17.16722656 3.26992188 18.27195312 3.18359375 19.41015625 C3.12300781 20.26480469 3.06242188 21.11945313 3 22 C2.01 22 1.02 22 0 22 C0 14.74 0 7.48 0 0 Z " fill="#F4F4F4" transform="translate(845,1013)"/>
<path d="M0 0 C0.99 0 1.98 0 3 0 C3.33 1.98 3.66 3.96 4 6 C5.6396875 5.6596875 5.6396875 5.6596875 7.3125 5.3125 C11 5 11 5 12.71875 6.03125 C14.67638667 9.03932586 14.28486142 11.65003495 14.1875 15.1875 C14.16042969 16.45980469 14.13335938 17.73210937 14.10546875 19.04296875 C14.07066406 20.01878906 14.03585937 20.99460937 14 22 C13.01 22 12.02 22 11 22 C10.67 17.71 10.34 13.42 10 9 C8.35 9 6.7 9 5 9 C3.18884044 10.81115956 3.61800552 13.61278227 3.4375 16.0625 C3.35371094 17.16722656 3.26992188 18.27195312 3.18359375 19.41015625 C3.12300781 20.26480469 3.06242188 21.11945313 3 22 C2.01 22 1.02 22 0 22 C0 14.74 0 7.48 0 0 Z " fill="#FEFEFE" transform="translate(639,1013)"/>
<path d="M0 0 C1.98 0 3.96 0 6 0 C6 7.26 6 14.52 6 22 C4.02 22 2.04 22 0 22 C0 14.74 0 7.48 0 0 Z " fill="#EFEFEF" transform="translate(1047,655)"/>
<path d="M0 0 C1.98 0 3.96 0 6 0 C6 7.26 6 14.52 6 22 C4.02 22 2.04 22 0 22 C0 14.74 0 7.48 0 0 Z " fill="#EFEFEF" transform="translate(904,655)"/>
<path d="M0 0 C0.99 0 1.98 0 3 0 C3 0.66 3 1.32 3 2 C3.99 1.34 4.98 0.68 6 0 C9.5625 0.1875 9.5625 0.1875 13 1 C15.42130331 4.63195496 15.21022785 6.38349348 15.125 10.6875 C15.10695313 11.86699219 15.08890625 13.04648438 15.0703125 14.26171875 C15.03550781 15.61716797 15.03550781 15.61716797 15 17 C14.01 17 13.02 17 12 17 C11.93941406 16.14535156 11.87882812 15.29070312 11.81640625 14.41015625 C11.73261719 13.30542969 11.64882812 12.20070313 11.5625 11.0625 C11.48128906 9.96035156 11.40007812 8.85820313 11.31640625 7.72265625 C11.29581916 5.08890097 11.29581916 5.08890097 10 4 C7.5 3.83333333 7.5 3.83333333 5 4 C3.18884044 5.81115956 3.61800552 8.61278227 3.4375 11.0625 C3.31181641 12.71958984 3.31181641 12.71958984 3.18359375 14.41015625 C3.12300781 15.26480469 3.06242187 16.11945313 3 17 C2.01 17 1.02 17 0 17 C0 11.39 0 5.78 0 0 Z " fill="#E6E6E6" transform="translate(1143,1018)"/>
<path d="M0 0 C0.99 0 1.98 0 3 0 C3.33 4.29 3.66 8.58 4 13 C5.98 13 7.96 13 10 13 C10.33 8.71 10.66 4.42 11 0 C11.99 0 12.98 0 14 0 C14 5.61 14 11.22 14 17 C4.8203125 17.29296875 4.8203125 17.29296875 2 17 C-0.49118953 13.2632157 -0.2065226 11.25548181 -0.125 6.8125 C-0.10695313 5.54019531 -0.08890625 4.26789062 -0.0703125 2.95703125 C-0.04710937 1.98121094 -0.02390625 1.00539063 0 0 Z " fill="#E6E6E6" transform="translate(686,1018)"/>
<path d="M0 0 C2 2 2 2 2.265625 3.875 C2.26046875 4.57625 2.2553125 5.2775 2.25 6 C2.25515625 6.70125 2.2603125 7.4025 2.265625 8.125 C2 10 2 10 0 12 C-3.5 12.3125 -3.5 12.3125 -7 12 C-9.46943529 8.29584707 -9.46913089 6.37855495 -9 2 C-6.17266771 -1.35091234 -4.03066587 -1.37891201 0 0 Z " fill="#090909" transform="translate(987,660)"/>
<path d="M0 0 C1.7325 0.1546875 1.7325 0.1546875 3.5 0.3125 C5.81282587 3.78173881 5.92478586 5.23455575 5.5 9.3125 C4.375 11.1875 4.375 11.1875 2.5 12.3125 C-0.5 12.75 -0.5 12.75 -3.5 12.3125 C-5.4375 10.6875 -5.4375 10.6875 -6.5 8.3125 C-6.18311055 3.03100922 -5.65446701 0.50486313 0 0 Z " fill="#0A0A0A" transform="translate(1068.5,659.6875)"/>
<path d="M0 0 C0.80050781 0.12761719 1.60101562 0.25523437 2.42578125 0.38671875 C3.23402344 0.50660156 4.04226563 0.62648438 4.875 0.75 C5.48988281 0.85699219 6.10476563 0.96398437 6.73828125 1.07421875 C6.73828125 2.06421875 6.73828125 3.05421875 6.73828125 4.07421875 C4.09828125 4.07421875 1.45828125 4.07421875 -1.26171875 4.07421875 C-1.26171875 4.73421875 -1.26171875 5.39421875 -1.26171875 6.07421875 C-0.33359375 6.36296875 0.59453125 6.65171875 1.55078125 6.94921875 C4.73828125 8.07421875 4.73828125 8.07421875 7.73828125 10.07421875 C7.36328125 13.01171875 7.36328125 13.01171875 6.73828125 16.07421875 C4.49315863 17.19678006 3.22371476 17.20835637 0.73828125 17.19921875 C-0.31359375 17.20308594 -0.31359375 17.20308594 -1.38671875 17.20703125 C-3.26171875 17.07421875 -3.26171875 17.07421875 -5.26171875 16.07421875 C-5.26171875 15.08421875 -5.26171875 14.09421875 -5.26171875 13.07421875 C-2.29171875 13.40421875 0.67828125 13.73421875 3.73828125 14.07421875 C3.73828125 13.41421875 3.73828125 12.75421875 3.73828125 12.07421875 C3.17238281 11.84347656 2.60648438 11.61273437 2.0234375 11.375 C-3.96628629 8.7117309 -3.96628629 8.7117309 -5.44921875 5.51171875 C-5.26171875 3.07421875 -5.26171875 3.07421875 -4.04296875 1.40234375 C-2.26171875 0.07421875 -2.26171875 0.07421875 0 0 Z " fill="#DFDFDF" transform="translate(981.26171875,1017.92578125)"/>
<path d="M0 0 C5.94 0 11.88 0 18 0 C18 0.99 18 1.98 18 3 C15.36 3 12.72 3 10 3 C10 9.27 10 15.54 10 22 C9.01 22 8.02 22 7 22 C7 15.73 7 9.46 7 3 C4.69 3 2.38 3 0 3 C0 2.01 0 1.02 0 0 Z " fill="#FBFBFB" transform="translate(618,1013)"/>
<path d="M0 0 C0 0.99 0 1.98 0 3 C-2.64 2.67 -5.28 2.34 -8 2 C-7.67 2.99 -7.34 3.98 -7 5 C-4.69747517 6.06902939 -2.3627974 7.07175817 0 8 C1 9 1 9 1.25 11.4375 C1.1675 12.283125 1.085 13.12875 1 14 C-3.05358424 16.70238949 -5.18310104 16.22937614 -10 16 C-10.66 15.67 -11.32 15.34 -12 15 C-11.67 14.01 -11.34 13.02 -11 12 C-8.36 12.33 -5.72 12.66 -3 13 C-2.67 12.01 -2.34 11.02 -2 10 C-2.56589844 9.86722656 -3.13179687 9.73445313 -3.71484375 9.59765625 C-4.44832031 9.42105469 -5.18179688 9.24445313 -5.9375 9.0625 C-6.66839844 8.88847656 -7.39929688 8.71445313 -8.15234375 8.53515625 C-10 8 -10 8 -11 7 C-11.25 4.0625 -11.25 4.0625 -11 1 C-6.8204355 -1.78637633 -4.85331323 -0.79562512 0 0 Z " fill="#E4E4E4" transform="translate(715,1019)"/>
<path d="M0 0 C0.99 0 1.98 0 3 0 C1.79618552 2.49361571 0.54571278 4.68143083 -1 7 C-0.67003321 10.40965687 0.96185073 12.34154443 3 15 C3 15.66 3 16.32 3 17 C-0.79588866 16.45773019 -2.47211993 14.79872437 -5 12 C-6.485 14.475 -6.485 14.475 -8 17 C-9.32 16.67 -10.64 16.34 -12 16 C-10.35 13.36 -8.7 10.72 -7 8 C-7.99 6.824375 -7.99 6.824375 -9 5.625 C-11 3 -11 3 -11 1 C-7.73045798 1.56371414 -6.17424117 2.49962266 -4 5 C-3.401875 4.175 -2.80375 3.35 -2.1875 2.5 C-1.465625 1.675 -0.74375 0.85 0 0 Z " fill="#E8E8E8" transform="translate(1062,1018)"/>
<path d="M0 0 C1.875 1.5 1.875 1.5 3 3 C-0.47823115 4.15941038 -2.45895578 3.70820884 -6 3 C-5.67 3.99 -5.34 4.98 -5 6 C-2.69747517 7.06902939 -0.3627974 8.07175817 2 9 C3 10 3 10 3.1875 12.4375 C3 15 3 15 1 17 C-6.23444976 17.57416268 -6.23444976 17.57416268 -9 15.5 C-9.33 15.005 -9.66 14.51 -10 14 C-7 14 -4 14 -1 14 C-0.67 13.01 -0.34 12.02 0 11 C-1.11375 10.71125 -2.2275 10.4225 -3.375 10.125 C-7 9 -7 9 -9 7 C-9.3125 4.5 -9.3125 4.5 -9 2 C-5.53076119 -0.31282587 -4.07794425 -0.42478586 0 0 Z " fill="#EFEFEF" transform="translate(1255,1018)"/>
<path d="M0 0 C1.875 1.5 1.875 1.5 3 3 C-0.47823115 4.15941038 -2.45895578 3.70820884 -6 3 C-5.67 3.99 -5.34 4.98 -5 6 C-2.69747517 7.06902939 -0.3627974 8.07175817 2 9 C3 10 3 10 3.1875 12.4375 C3 15 3 15 1 17 C-6.23444976 17.57416268 -6.23444976 17.57416268 -9 15.5 C-9.33 15.005 -9.66 14.51 -10 14 C-6.93109813 12.46554906 -4.29905734 13.45015711 -1 14 C-0.67 13.01 -0.34 12.02 0 11 C-1.11375 10.71125 -2.2275 10.4225 -3.375 10.125 C-7 9 -7 9 -9 7 C-9.3125 4.5 -9.3125 4.5 -9 2 C-5.53076119 -0.31282587 -4.07794425 -0.42478586 0 0 Z " fill="#EEEEEE" transform="translate(839,1018)"/>
<path d="M0 0 C1.875 1.0625 1.875 1.0625 3 3 C2.875 6.5625 2.875 6.5625 2 10 C-1 12 -1 12 -3.5625 11.8125 C-6 11 -6 11 -8 8 C-8.35840349 5.13277207 -8.41121458 3.62764331 -6.8125 1.1875 C-4.35092224 -0.42525784 -2.88934264 -0.4334014 0 0 Z " fill="#0A0A0A" transform="translate(776,1021)"/>
<path d="M0 0 C1.875 1.5 1.875 1.5 3 3 C-0.47325181 4.1577506 -3.36067448 4.06866652 -7 4 C-7.020625 5.299375 -7.04125 6.59875 -7.0625 7.9375 C-7.07410156 8.66839844 -7.08570313 9.39929687 -7.09765625 10.15234375 C-7.20561184 12.01732141 -7.20561184 12.01732141 -6 13 C-3.32941149 13.14115161 -0.67567762 13.04247107 2 13 C2.33 13.99 2.66 14.98 3 16 C-0.20841035 17.60420518 -3.5193987 17.47462745 -7 17 C-9.5 15.5 -9.5 15.5 -11 13 C-11.7152453 7.99328289 -11.81148802 6.14563015 -8.875 2 C-5.51896425 -0.33463357 -4.00106924 -0.69583813 0 0 Z " fill="#E1E1E1" transform="translate(1172,1018)"/>
<path d="M0 0 C2.5625 0.3125 2.5625 0.3125 4.4375 1.375 C6.26098531 4.51544693 5.4283284 6.9110313 4.5625 10.3125 C1.5625 12.3125 1.5625 12.3125 -0.5 12.0625 C-2.4375 11.3125 -2.4375 11.3125 -4.4375 9.3125 C-4.6875 5.8125 -4.6875 5.8125 -4.4375 2.3125 C-2.4375 0.3125 -2.4375 0.3125 0 0 Z " fill="#0C0C0C" transform="translate(1076.4375,1020.6875)"/>
<path d="M0 0 C0.88751953 0.19529297 0.88751953 0.19529297 1.79296875 0.39453125 C1.79296875 1.05453125 1.79296875 1.71453125 1.79296875 2.39453125 C-1.14510022 3.37388757 -3.15980763 3.39453125 -6.20703125 3.39453125 C-7.56321624 4.5198723 -7.56321624 4.5198723 -7.26953125 7.45703125 C-7.24890625 8.42640625 -7.22828125 9.39578125 -7.20703125 10.39453125 C-3.74203125 11.87953125 -3.74203125 11.87953125 -0.20703125 13.39453125 C-0.86703125 14.05453125 -1.52703125 14.71453125 -2.20703125 15.39453125 C-5.88407353 15.26082062 -8.31706106 15.16966658 -11.14453125 12.70703125 C-12.56837075 9.60808645 -12.75856952 7.77270313 -12.20703125 4.39453125 C-8.67697635 -0.95748747 -5.8505206 -1.02121648 0 0 Z " fill="#DFDFDF" transform="translate(1279.20703125,1018.60546875)"/>
<path d="M0 0 C0.9075 0.103125 1.815 0.20625 2.75 0.3125 C1.96625 0.910625 1.1825 1.50875 0.375 2.125 C-2.39574323 4.22335249 -2.39574323 4.22335249 -4.25 7.3125 C-0.95 7.3125 2.35 7.3125 5.75 7.3125 C5.75 7.6425 5.75 7.9725 5.75 8.3125 C2.78 8.3125 -0.19 8.3125 -3.25 8.3125 C-2.59 9.9625 -1.93 11.6125 -1.25 13.3125 C1.39 12.9825 4.03 12.6525 6.75 12.3125 C7.08 13.3025 7.41 14.2925 7.75 15.3125 C4.54468579 16.9151571 1.22781792 16.79457377 -2.25 16.3125 C-5.58219018 14.17648066 -6.14315459 12.6797811 -7.25 8.875 C-7.25 5.3125 -7.25 5.3125 -5.6875 2.375 C-3.25 0.3125 -3.25 0.3125 0 0 Z " fill="#ECECEC" transform="translate(1131.25,1018.6875)"/>
<path d="M0 0 C0.9075 0.103125 1.815 0.20625 2.75 0.3125 C1.96625 0.910625 1.1825 1.50875 0.375 2.125 C-2.39574323 4.22335249 -2.39574323 4.22335249 -4.25 7.3125 C-0.95 7.3125 2.35 7.3125 5.75 7.3125 C5.75 7.6425 5.75 7.9725 5.75 8.3125 C2.45 8.3125 -0.85 8.3125 -4.25 8.3125 C-3.26 9.9625 -2.27 11.6125 -1.25 13.3125 C1.39 12.9825 4.03 12.6525 6.75 12.3125 C7.08 13.3025 7.41 14.2925 7.75 15.3125 C4.03888231 16.54953923 0.60103869 16.99437405 -3.25 16.3125 C-6.24993115 13.76255852 -7.10480459 12.18367244 -7.75 8.3125 C-6.91673886 3.31293316 -5.21734076 0.50166738 0 0 Z " fill="#ECECEC" transform="translate(1094.25,1018.6875)"/>
<path d="M0 0 C0.5775 0.165 1.155 0.33 1.75 0.5 C4.45033485 1.10007441 6.34161797 0.66459551 9 0 C9 0.99 9 1.98 9 3 C7.35 3.66 5.7 4.32 4 5 C3.67 8.96 3.34 12.92 3 17 C1.68 17 0.36 17 -1 17 C-1.02684679 14.35409986 -1.04676357 11.70846904 -1.0625 9.0625 C-1.07087891 8.30775391 -1.07925781 7.55300781 -1.08789062 6.77539062 C-1.09652441 4.85005687 -1.05224333 2.92464419 -1 1 C-0.67 0.67 -0.34 0.34 0 0 Z " fill="#CCCCCC" transform="translate(1010,1018)"/>
<path d="M0 0 C0.5775 0.165 1.155 0.33 1.75 0.5 C4.45033485 1.10007441 6.34161797 0.66459551 9 0 C9 0.99 9 1.98 9 3 C7.35 3.66 5.7 4.32 4 5 C3.67 8.96 3.34 12.92 3 17 C1.68 17 0.36 17 -1 17 C-1.02684679 14.35409986 -1.04676357 11.70846904 -1.0625 9.0625 C-1.07087891 8.30775391 -1.07925781 7.55300781 -1.08789062 6.77539062 C-1.09652441 4.85005687 -1.05224333 2.92464419 -1 1 C-0.67 0.67 -0.34 0.34 0 0 Z " fill="#CCCCCC" transform="translate(917,1018)"/>
<path d="M0 0 C0.33 0.99 0.66 1.98 1 3 C7.435 2.505 7.435 2.505 14 2 C14 2.99 14 3.98 14 5 C8.06 5.495 8.06 5.495 2 6 C2.99 7.485 2.99 7.485 4 9 C6.64 8.67 9.28 8.34 12 8 C12 8.99 12 9.98 12 11 C11 12 11 12 7.1875 12.25 C4.52588184 12.19753082 3.03692806 12.01609685 0.5625 10.9375 C-1.74035058 8.08196528 -1.86895515 5.60373332 -2 2 C-1.34 1.34 -0.68 0.68 0 0 Z " fill="#ECECEC" transform="translate(1230,1023)"/>
<path d="M0 0 C0.99 0 1.98 0 3 0 C3 8.91 3 17.82 3 27 C2.01 27 1.02 27 0 27 C0 18.09 0 9.18 0 0 Z " fill="#C3C3C3" transform="translate(938,1011)"/>
<path d="M0 0 C2.5 0.25 2.5 0.25 4.5 2.25 C4.75 5.25 4.75 5.25 4.5 8.25 C2.5 10.25 2.5 10.25 0 10.5 C-2.5 10.25 -2.5 10.25 -4.5 8.25 C-4.75 5.25 -4.75 5.25 -4.5 2.25 C-2.5 0.25 -2.5 0.25 0 0 Z " fill="#050505" transform="translate(1275.5,1020.75)"/>
<path d="M0 0 C6.38197767 0.48165869 6.38197767 0.48165869 8.9375 2.625 C10.44290722 5.99002791 10.44819965 8.35037432 10 12 C8.4375 14.9375 8.4375 14.9375 6 17 C2.25 17.3125 2.25 17.3125 -1 17 C0.39195915 14.2160817 2.15575779 14.02101003 5 13 C5.9363921 9.70054409 5.9363921 9.70054409 6 6 C3.71709187 3.62342275 3.71709187 3.62342275 1 2 C0.67 1.34 0.34 0.68 0 0 Z " fill="#EBEBEB" transform="translate(1075,1018)"/>
<path d="M0 0 C6.47556391 0.61090226 6.47556391 0.61090226 8.9375 2.4375 C10 4 10 4 10 6 C9.34 6 8.68 6 8 6 C8 6.66 8 7.32 8 8 C4.37 8 0.74 8 -3 8 C-1 4 -1 4 1 2 C0.67 1.34 0.34 0.68 0 0 Z " fill="#CCCCCC" transform="translate(1183,1018)"/>
<path d="M0 0 C2.25 -0.3125 2.25 -0.3125 5 0 C7.3125 1.75 7.3125 1.75 9 5 C9.32956151 9.02274293 9.23117987 12.97361728 9 17 C7.68 17 6.36 17 5 17 C4.96261719 16.08476563 4.92523437 15.16953125 4.88671875 14.2265625 C4.78810547 12.44378906 4.78810547 12.44378906 4.6875 10.625 C4.62949219 9.44164062 4.57148437 8.25828125 4.51171875 7.0390625 C4.34285156 6.03617188 4.17398438 5.03328125 4 4 C3.01 3.34 2.02 2.68 1 2 C0.67 1.34 0.34 0.68 0 0 Z " fill="#D2D2D2" transform="translate(801,1018)"/>
<path d="M0 0 C0.99 0 1.98 0 3 0 C3.33 0.66 3.66 1.32 4 2 C4.66 1.34 5.32 0.68 6 0 C6.99 0 7.98 0 9 0 C9 0.99 9 1.98 9 3 C8.195625 3.33 7.39125 3.66 6.5625 4 C3.75751992 5.74613845 3.75751992 5.74613845 3.4453125 8.63671875 C3.20933648 11.42910169 3.05232102 14.19844731 3 17 C2.01 17 1.02 17 0 17 C0 11.39 0 5.78 0 0 Z " fill="#F1F1F1" transform="translate(674,1018)"/>
<path d="M0 0 C0.99 0 1.98 0 3 0 C4.0773541 7.49175465 3.8388516 14.48905184 3 22 C2.01 22 1.02 22 0 22 C0 14.74 0 7.48 0 0 Z " fill="#FDFDFD" transform="translate(719,1013)"/>
<path d="M0 0 C0.99 0 1.98 0 3 0 C3.33 0.66 3.66 1.32 4 2 C5.65 1.34 7.3 0.68 9 0 C9 0.99 9 1.98 9 3 C8.195625 3.33 7.39125 3.66 6.5625 4 C3.75751992 5.74613845 3.75751992 5.74613845 3.4453125 8.63671875 C3.20933648 11.42910169 3.05232102 14.19844731 3 17 C2.01 17 1.02 17 0 17 C0 11.39 0 5.78 0 0 Z " fill="#ECECEC" transform="translate(1106,1018)"/>
<path d="M0 0 C1.6484375 1.06640625 1.6484375 1.06640625 3 3 C3.29296875 6.35546875 3.29296875 6.35546875 3.1875 10.1875 C3.16042969 11.45980469 3.13335938 12.73210937 3.10546875 14.04296875 C3.07066406 15.01878906 3.03585937 15.99460937 3 17 C2.01 17 1.02 17 0 17 C-0.33 12.71 -0.66 8.42 -1 4 C-2.98 4 -4.96 4 -7 4 C-7 3.01 -7 2.02 -7 1 C-4.45132831 -0.27433584 -2.82594567 -0.27570202 0 0 Z " fill="#EEEEEE" transform="translate(650,1018)"/>
<path d="M0 0 C3.375 0.3125 3.375 0.3125 7 1 C9.42130331 4.63195496 9.21022785 6.38349348 9.125 10.6875 C9.10695313 11.86699219 9.08890625 13.04648438 9.0703125 14.26171875 C9.03550781 15.61716797 9.03550781 15.61716797 9 17 C8.01 17 7.02 17 6 17 C5.96132812 15.75283203 5.96132812 15.75283203 5.921875 14.48046875 C5.86515625 13.39378906 5.8084375 12.30710937 5.75 11.1875 C5.70359375 10.10855469 5.6571875 9.02960938 5.609375 7.91796875 C5.28112029 4.89692118 5.28112029 4.89692118 3.015625 3.23828125 C2.35046875 2.82964844 1.6853125 2.42101562 1 2 C0.67 1.34 0.34 0.68 0 0 Z " fill="#F3F3F3" transform="translate(1293,1018)"/>
<path d="M0 0 C3.375 0.3125 3.375 0.3125 7 1 C9.42130331 4.63195496 9.21022785 6.38349348 9.125 10.6875 C9.10695313 11.86699219 9.08890625 13.04648438 9.0703125 14.26171875 C9.03550781 15.61716797 9.03550781 15.61716797 9 17 C8.01 17 7.02 17 6 17 C5.96132812 15.75283203 5.96132812 15.75283203 5.921875 14.48046875 C5.86515625 13.39378906 5.8084375 12.30710937 5.75 11.1875 C5.70359375 10.10855469 5.6571875 9.02960938 5.609375 7.91796875 C5.28112029 4.89692118 5.28112029 4.89692118 3.015625 3.23828125 C2.35046875 2.82964844 1.6853125 2.42101562 1 2 C0.67 1.34 0.34 0.68 0 0 Z " fill="#ECECEC" transform="translate(1149,1018)"/>
<path d="M0 0 C3.375 0.3125 3.375 0.3125 7 1 C9.42130331 4.63195496 9.21022785 6.38349348 9.125 10.6875 C9.10695313 11.86699219 9.08890625 13.04648438 9.0703125 14.26171875 C9.03550781 15.61716797 9.03550781 15.61716797 9 17 C8.01 17 7.02 17 6 17 C5.96132813 15.75283203 5.96132813 15.75283203 5.921875 14.48046875 C5.86515625 13.39378906 5.8084375 12.30710937 5.75 11.1875 C5.70359375 10.10855469 5.6571875 9.02960938 5.609375 7.91796875 C5.28112029 4.89692118 5.28112029 4.89692118 3.015625 3.23828125 C2.35046875 2.82964844 1.6853125 2.42101562 1 2 C0.67 1.34 0.34 0.68 0 0 Z " fill="#E5E5E5" transform="translate(851,1018)"/>
<path d="M0 0 C1.670625 0.061875 1.670625 0.061875 3.375 0.125 C3.705 0.785 4.035 1.445 4.375 2.125 C2.065 2.125 -0.245 2.125 -2.625 2.125 C-2.955 3.775 -3.285 5.425 -3.625 7.125 C-1.315 7.455 0.995 7.785 3.375 8.125 C3.045 8.785 2.715 9.445 2.375 10.125 C-1 10.3125 -1 10.3125 -4.625 10.125 C-6.625 7.125 -6.625 7.125 -6.375 4.5625 C-5.13383596 0.52871688 -4.24020918 0.14621411 0 0 Z " fill="#F3F3F3" transform="translate(662.625,1024.875)"/>
<path d="M0 0 C0.99 0 1.98 0 3 0 C3 5.61 3 11.22 3 17 C2.01 17 1.02 17 0 17 C0 11.39 0 5.78 0 0 Z " fill="#EDEDED" transform="translate(1261,1018)"/>
<path d="M0 0 C0.99 0 1.98 0 3 0 C3 5.61 3 11.22 3 17 C2.01 17 1.02 17 0 17 C0 11.39 0 5.78 0 0 Z " fill="#EDEDED" transform="translate(1118,1018)"/>
<path d="M0 0 C3.5 0.8125 3.5 0.8125 5.4375 2.0625 C6.85440053 4.39621852 6.71718696 6.13386078 6.5 8.8125 C5.51 8.4825 4.52 8.1525 3.5 7.8125 C3.5 6.4925 3.5 5.1725 3.5 3.8125 C-1.04805635 3.63414485 -4.3794254 3.81464565 -8.5 5.8125 C-6.60058776 1.42924099 -5.04592015 -0.27031715 0 0 Z " fill="#E2E2E2" transform="translate(999.5,1018.1875)"/>
<path d="M0 0 C3.5 0.8125 3.5 0.8125 5.4375 2.0625 C6.85440053 4.39621852 6.71718696 6.13386078 6.5 8.8125 C5.51 8.4825 4.52 8.1525 3.5 7.8125 C3.5 6.4925 3.5 5.1725 3.5 3.8125 C-1.04805635 3.63414485 -4.3794254 3.81464565 -8.5 5.8125 C-6.60058776 1.42924099 -5.04592015 -0.27031715 0 0 Z " fill="#E4E4E4" transform="translate(871.5,1018.1875)"/>
<path d="M0 0 C0.33 0 0.66 0 1 0 C1.66 2.64 2.32 5.28 3 8 C5.31 8.33 7.62 8.66 10 9 C9.67 9.99 9.34 10.98 9 12 C4.94219787 12.47183746 3.43804676 12.33329645 0.125 9.8125 C-2 7 -2 7 -2.4375 4.3125 C-2 2 -2 2 0 0 Z " fill="#F4F4F4" transform="translate(767,1023)"/>
<path d="M0 0 C1.4540625 0.0309375 1.4540625 0.0309375 2.9375 0.0625 C3.2675 1.3825 3.5975 2.7025 3.9375 4.0625 C0.9375 6.0625 0.9375 6.0625 -1.75 5.6875 C-2.513125 5.48125 -3.27625 5.275 -4.0625 5.0625 C-4.0625 0.08290816 -4.0625 0.08290816 0 0 Z " fill="#151515" transform="translate(820.0625,1026.9375)"/>
<path d="M0 0 C1.134375 0.020625 2.26875 0.04125 3.4375 0.0625 C3.1075 1.7125 2.7775 3.3625 2.4375 5.0625 C0.4575 5.3925 -1.5225 5.7225 -3.5625 6.0625 C-3.94468767 4.40635343 -4.27645102 2.73792976 -4.5625 1.0625 C-3.5625 0.0625 -3.5625 0.0625 0 0 Z " fill="#101010" transform="translate(906.5625,1026.9375)"/>
<path d="M0 0 C2.31 0 4.62 0 7 0 C6.67 1.65 6.34 3.3 6 5 C1.25 6.125 1.25 6.125 -1 5 C-0.67 3.35 -0.34 1.7 0 0 Z " fill="#111111" transform="translate(660,1027)"/>
<path d="M0 0 C2.625 0.25 2.625 0.25 4.4375 1.625 C5.625 3.25 5.625 3.25 5.625 5.25 C2.325 5.25 -0.975 5.25 -4.375 5.25 C-3.14527027 0.33108108 -3.14527027 0.33108108 0 0 Z " fill="#272727" transform="translate(948.375,658.75)"/>
<path d="M0 0 C2.625 0.25 2.625 0.25 4.4375 1.625 C5.625 3.25 5.625 3.25 5.625 5.25 C2.325 5.25 -0.975 5.25 -4.375 5.25 C-3.14527027 0.33108108 -3.14527027 0.33108108 0 0 Z " fill="#272727" transform="translate(848.375,658.75)"/>
<path d="M0 0 C2.00720923 0.28674418 4.0085944 0.61866701 6 1 C6.33 2.32 6.66 3.64 7 5 C3.7 5 0.4 5 -3 5 C-1 1 -1 1 0 0 Z " fill="#101010" transform="translate(1008,659)"/>
<path d="M0 0 C5.94 0.99 5.94 0.99 12 2 C11.67 2.99 11.34 3.98 11 5 C9.741875 5.04125 8.48375 5.0825 7.1875 5.125 C6.47980469 5.14820313 5.77210938 5.17140625 5.04296875 5.1953125 C3 5 3 5 0 3 C0 2.01 0 1.02 0 0 Z " fill="#E0E0E0" transform="translate(746,1030)"/>
<path d="M0 0 C1.67542976 0.28604898 3.34385343 0.61781233 5 1 C4.67 2.65 4.34 4.3 4 6 C2.35 6 0.7 6 -1 6 C-1.042721 4.33388095 -1.04063832 2.66617115 -1 1 C-0.67 0.67 -0.34 0.34 0 0 Z " fill="#F5F5F5" transform="translate(1048,646)"/>
<path d="M0 0 C1.67542976 0.28604898 3.34385343 0.61781233 5 1 C4.67 2.65 4.34 4.3 4 6 C2.35 6 0.7 6 -1 6 C-1.042721 4.33388095 -1.04063832 2.66617115 -1 1 C-0.67 0.67 -0.34 0.34 0 0 Z " fill="#F5F5F5" transform="translate(905,646)"/>
<path d="M0 0 C2.6875 -0.25 2.6875 -0.25 5 0 C5.66 1.32 6.32 2.64 7 4 C3.7 4 0.4 4 -3 4 C-2.01 2.68 -1.02 1.36 0 0 Z " fill="#070707" transform="translate(1234,1021)"/>
<path d="M0 0 C2.31 0.33 4.62 0.66 7 1 C7 1.99 7 2.98 7 4 C4.03 4 1.06 4 -2 4 C-1.34 2.68 -0.68 1.36 0 0 Z " fill="#080808" transform="translate(996,1021)"/>
<path d="M0 0 C2.31 0.33 4.62 0.66 7 1 C7 1.99 7 2.98 7 4 C4.03 4 1.06 4 -2 4 C-1.34 2.68 -0.68 1.36 0 0 Z " fill="#070707" transform="translate(868,1021)"/>
<path d="M0 0 C1.65 0 3.3 0 5 0 C5.66 1.32 6.32 2.64 7 4 C4.03 4 1.06 4 -2 4 C-1.34 2.68 -0.68 1.36 0 0 Z " fill="#030303" transform="translate(1183,1021)"/>
<path d="M0 0 C1.65 0 3.3 0 5 0 C5.66 1.32 6.32 2.64 7 4 C4.03 4 1.06 4 -2 4 C-1.34 2.68 -0.68 1.36 0 0 Z " fill="#030303" transform="translate(1130,1021)"/>
<path d="M0 0 C1.65 0 3.3 0 5 0 C5.66 1.32 6.32 2.64 7 4 C4.03 4 1.06 4 -2 4 C-1.34 2.68 -0.68 1.36 0 0 Z " fill="#030303" transform="translate(1093,1021)"/>
<path d="M0 0 C1.98567708 0.29296875 3.97135417 0.5859375 5.95703125 0.87890625 C8.2025342 1.13904799 8.2025342 1.13904799 11 0 C11 0.99 11 1.98 11 3 C8.75487738 4.12256131 7.48543351 4.13413762 5 4.125 C3.948125 4.12886719 3.948125 4.12886719 2.875 4.1328125 C1 4 1 4 -1 3 C-0.67 2.01 -0.34 1.02 0 0 Z " fill="#EEEEEE" transform="translate(704,1031)"/>
<path d="M0 0 C0.37125 0.639375 0.7425 1.27875 1.125 1.9375 C3.58052793 4.63858072 5.44578805 4.68407005 9 5 C8.67 5.66 8.34 6.32 8 7 C4.625 7.125 4.625 7.125 1 7 C0.34 6.34 -0.32 5.68 -1 5 C-0.625 2.375 -0.625 2.375 0 0 Z " fill="#F7F7F7" transform="translate(900,1028)"/>
<path d="M0 0 C7.75 0.875 7.75 0.875 10 2 C9.67 2.66 9.34 3.32 9 4 C6.36 4 3.72 4 1 4 C0.67 2.68 0.34 1.36 0 0 Z " fill="#E9E9E9" transform="translate(1269,1036)"/>
<path d="M0 0 C-0.99 0.495 -0.99 0.495 -2 1 C-2 1.66 -2 2.32 -2 3 C-4.31 3.33 -6.62 3.66 -9 4 C-9 3.01 -9 2.02 -9 1 C-6.04335481 -0.4783226 -3.25770263 -0.06032783 0 0 Z " fill="#D4D4D4" transform="translate(823,1018)"/>
<path d="M0 0 C3.875 1.875 3.875 1.875 5 3 C5.04063832 4.66617115 5.042721 6.33388095 5 8 C4.01 7.67 3.02 7.34 2 7 C2 5.68 2 4.36 2 3 C1.34 3 0.68 3 0 3 C0 2.01 0 1.02 0 0 Z " fill="#F3F3F3" transform="translate(1001,1019)"/>
<path d="M0 0 C3.875 1.875 3.875 1.875 5 3 C5.04063832 4.66617115 5.042721 6.33388095 5 8 C4.01 7.67 3.02 7.34 2 7 C2 5.68 2 4.36 2 3 C1.34 3 0.68 3 0 3 C0 2.01 0 1.02 0 0 Z " fill="#F3F3F3" transform="translate(873,1019)"/>
<path d="M0 0 C0 0.33 0 0.66 0 1 C-0.78375 1.0825 -1.5675 1.165 -2.375 1.25 C-3.24125 1.4975 -4.1075 1.745 -5 2 C-5.69937532 3.31647119 -6.36729133 4.65022151 -7 6 C-9.125 6.75 -9.125 6.75 -11 7 C-8.38092426 1.15744643 -6.57566735 -0.43837782 0 0 Z " fill="#DBDBDB" transform="translate(776,1018)"/>
<path d="M0 0 C1.4540625 0.0309375 1.4540625 0.0309375 2.9375 0.0625 C-2.20535714 4.49107143 -2.20535714 4.49107143 -6.0625 5.0625 C-3.64893617 0.07446809 -3.64893617 0.07446809 0 0 Z " fill="#F1F1F1" transform="translate(1184.0625,1018.9375)"/>
<path d="M0 0 C2.625 -0.1875 2.625 -0.1875 5 0 C5.33 0.99 5.66 1.98 6 3 C3.36 3 0.72 3 -2 3 C-1.34 2.01 -0.68 1.02 0 0 Z " fill="#000000" transform="translate(947,660)"/>
<path d="M0 0 C2.625 -0.1875 2.625 -0.1875 5 0 C5.33 0.99 5.66 1.98 6 3 C3.36 3 0.72 3 -2 3 C-1.34 2.01 -0.68 1.02 0 0 Z " fill="#000000" transform="translate(847,660)"/>
<path d="M0 0 C1.84765625 0.33984375 1.84765625 0.33984375 4.0625 0.9375 C5.16271484 1.22947266 5.16271484 1.22947266 6.28515625 1.52734375 C7.13400391 1.76130859 7.13400391 1.76130859 8 2 C8 2.66 8 3.32 8 4 C2.46153846 4.36923077 2.46153846 4.36923077 0.125 2.5 C-0.24625 2.005 -0.6175 1.51 -1 1 C-0.67 0.67 -0.34 0.34 0 0 Z " fill="#F7F7F7" transform="translate(830,1031)"/>
<path d="M0 0 C5.53846154 -0.36923077 5.53846154 -0.36923077 7.875 1.5 C8.24625 1.995 8.6175 2.49 9 3 C6 4 6 4 3.9375 3.1875 C2 2 2 2 0 0 Z " fill="#D0D0D0" transform="translate(1249,1018)"/>
<path d="M0 0 C2.31 0 4.62 0 7 0 C7 0.99 7 1.98 7 3 C4.36 2.67 1.72 2.34 -1 2 C-0.67 1.34 -0.34 0.68 0 0 Z " fill="#F4F4F4" transform="translate(1167,1019)"/>
<path d="M0 0 C5.53846154 -0.36923077 5.53846154 -0.36923077 7.875 1.5 C8.24625 1.995 8.6175 2.49 9 3 C6 4 6 4 3.9375 3.1875 C2 2 2 2 0 0 Z " fill="#CECECE" transform="translate(833,1018)"/>
<path d="M0 0 C-0.99 0.495 -0.99 0.495 -2 1 C-2 1.66 -2 2.32 -2 3 C-3.65 3.33 -5.3 3.66 -7 4 C-7 3.01 -7 2.02 -7 1 C-4.53721199 -0.231394 -2.7204945 -0.07159196 0 0 Z " fill="#E0E0E0" transform="translate(650,1018)"/>
</svg>
